# 3ds Max Wavefront OBJ Exporter v0.97b - (c)2007 guruware
# File Created: 01.12.2012 07:42:00

mtllib missile.mtl

#
# object Cylinder001
#

v  -0.0066 -0.0979 0.5391
v  -0.3390 -0.0979 0.4014
v  -0.4767 -0.0979 0.0691
v  -0.3390 -0.0979 -0.2633
v  -0.0066 -0.0979 -0.4010
v  0.3257 -0.0979 -0.2633
v  0.4634 -0.0979 0.0691
v  0.3257 -0.0979 0.4014
v  0.9934 0.0000 0.0691
v  0.7005 0.0000 -0.6380
v  0.7005 1.0000 -0.6380
v  0.9934 1.0000 0.0691
v  0.7734 0.0000 -1.6677
v  0.6699 0.0000 -1.7106
v  0.6699 0.3149 -1.7106
v  0.7734 0.3149 -1.6677
v  -0.0066 0.0000 -0.9309
v  -0.7137 0.0000 -0.6380
v  -0.7137 1.0000 -0.6380
v  -0.0066 1.0000 -0.9309
v  -1.7434 0.0000 -0.7110
v  -1.7863 0.0000 -0.6075
v  -1.7863 0.3149 -0.6075
v  -1.7434 0.3149 -0.7110
v  -1.0066 0.0000 0.0691
v  -0.7137 0.0000 0.7762
v  -0.7137 1.0000 0.7762
v  -1.0066 1.0000 0.0691
v  -0.7867 0.0000 1.8059
v  -0.6832 0.0000 1.8488
v  -0.6832 0.3149 1.8488
v  -0.7867 0.3149 1.8059
v  -0.0066 0.0000 1.0691
v  0.7005 0.0000 0.7762
v  0.7005 1.0000 0.7762
v  -0.0066 1.0000 1.0691
v  1.7302 0.0000 0.8491
v  1.7730 0.0000 0.7456
v  1.7730 0.3149 0.7456
v  1.7302 0.3149 0.8491
v  0.7005 2.0000 -0.6380
v  0.9934 2.0000 0.0691
v  -0.0066 2.0000 -0.9309
v  -0.7137 2.0000 -0.6380
v  -1.0066 2.0000 0.0691
v  -0.7137 2.0000 0.7762
v  -0.0066 2.0000 1.0691
v  0.7005 2.0000 0.7762
v  0.7005 3.0000 -0.6380
v  0.9934 3.0000 0.0691
v  -0.0066 3.0000 -0.9309
v  -0.7137 3.0000 -0.6380
v  -1.0066 3.0000 0.0691
v  -0.7137 3.0000 0.7762
v  -0.0066 3.0000 1.0691
v  0.7005 3.0000 0.7762
v  0.7005 4.0000 -0.6380
v  0.9934 4.0000 0.0691
v  -0.0066 4.0000 -0.9309
v  -0.7137 4.0000 -0.6380
v  -1.0066 4.0000 0.0691
v  -0.7137 4.0000 0.7762
v  -0.0066 4.0000 1.0691
v  0.7005 4.0000 0.7762
v  0.1454 5.5668 0.0691
v  0.1009 5.5668 -0.0385
v  -0.0066 5.5668 -0.0830
v  -0.1142 5.5668 -0.0385
v  -0.1587 5.5668 0.0691
v  -0.1142 5.5668 0.1766
v  -0.0066 5.5668 0.2211
v  0.1009 5.5668 0.1766
v  0.2508 6.3501 -0.1883
v  0.3574 6.3501 0.0691
v  -0.0066 6.3501 -0.2950
v  -0.2641 6.3501 -0.1883
v  -0.3707 6.3501 0.0691
v  -0.2641 6.3501 0.3265
v  -0.0066 6.3501 0.4331
v  0.2508 6.3501 0.3265
v  1.2054 -0.5875 0.0691
v  0.8504 -0.5875 -0.7879
v  0.8504 -0.5875 0.9261
v  -0.0066 -0.5875 1.2811
v  -0.8636 -0.5875 0.9261
v  -1.2186 -0.5875 0.0691
v  -0.8636 -0.5875 -0.7879
v  -0.0066 -0.5875 -1.1429
# 88 vertices

vn 0.0000 -1.0000 -0.0000
vn 0.9239 0.0000 -0.3827
vn 0.3827 0.0000 -0.9239
vn -0.3827 0.0000 -0.9239
vn -0.9239 0.0000 -0.3827
vn -0.9239 0.0000 0.3827
vn -0.3827 0.0000 0.9239
vn 0.3827 0.0000 0.9239
vn 0.9239 0.0000 0.3827
vn 0.0000 1.0000 -0.0000
vn 0.8963 0.2425 -0.3713
vn 0.3713 0.2425 -0.8963
vn -0.3713 0.2425 -0.8963
vn -0.8963 0.2425 -0.3713
vn -0.8963 0.2425 0.3713
vn -0.3713 0.2425 0.8963
vn 0.3713 0.2425 0.8963
vn 0.8963 0.2425 0.3713
vn -0.7553 0.0000 -0.6554
vn 0.2194 0.8194 -0.5296
vn 0.9975 0.0000 0.0706
vn -0.6554 0.0000 0.7553
vn -0.5296 0.8194 -0.2194
vn 0.0706 0.0000 -0.9975
vn 0.7553 0.0000 0.6554
vn -0.2194 0.8194 0.5296
vn -0.9975 0.0000 -0.0706
vn 0.6554 0.0000 -0.7553
vn 0.5296 0.8194 0.2194
vn -0.0706 0.0000 0.9975
vn 0.8765 0.3162 -0.3630
vn 0.8765 0.3162 0.3630
vn 0.3630 0.3162 0.8765
vn -0.3630 0.3162 0.8765
vn -0.8765 0.3162 0.3630
vn -0.8765 0.3162 -0.3630
vn -0.3630 0.3162 -0.8765
vn 0.3630 0.3162 -0.8765
vn -0.5370 -0.8137 0.2224
vn -0.5370 -0.8137 -0.2224
vn -0.2224 -0.8137 -0.5370
vn 0.2224 -0.8137 -0.5370
vn 0.5370 -0.8137 -0.2224
vn 0.5370 -0.8137 0.2224
vn 0.2224 -0.8137 0.5370
vn -0.2224 -0.8137 0.5370
# 46 vertex normals

vt 1.0000 2.0000 0.0000
vt 0.2929 1.7071 0.0000
vt 0.0000 1.0000 0.0000
vt 0.2929 0.2929 0.0000
vt 1.0000 0.0000 0.0000
vt 1.7071 0.2929 0.0000
vt 2.0000 1.0000 0.0000
vt 1.7071 1.7071 0.0000
vt 4.7124 0.0000 1.0000
vt 5.4978 0.0000 1.0000
vt 5.4978 1.0000 1.0000
vt 4.7124 1.0000 1.0000
vt -0.7854 0.0000 1.0000
vt 0.0000 0.0000 1.0000
vt 0.0000 1.0000 1.0000
vt -0.7854 1.0000 1.0000
vt 0.7854 0.0000 1.0000
vt 0.7854 1.0000 1.0000
vt 1.5708 0.0000 1.0000
vt 1.5708 1.0000 1.0000
vt 2.3562 0.0000 1.0000
vt 2.3562 1.0000 1.0000
vt 3.1416 0.0000 1.0000
vt 3.1416 1.0000 1.0000
vt 3.9270 0.0000 1.0000
vt 3.9270 1.0000 1.0000
vt 5.4978 2.0000 1.0000
vt 4.7124 2.0000 1.0000
vt 0.0000 2.0000 1.0000
vt -0.7854 2.0000 1.0000
vt 0.7854 2.0000 1.0000
vt 1.5708 2.0000 1.0000
vt 2.3562 2.0000 1.0000
vt 3.1416 2.0000 1.0000
vt 3.9270 2.0000 1.0000
vt 5.4978 3.0000 1.0000
vt 4.7124 3.0000 1.0000
vt 0.0000 3.0000 1.0000
vt -0.7854 3.0000 1.0000
vt 0.7854 3.0000 1.0000
vt 1.5708 3.0000 1.0000
vt 2.3562 3.0000 1.0000
vt 3.1416 3.0000 1.0000
vt 3.9270 3.0000 1.0000
vt 5.4978 4.0000 1.0000
vt 4.7124 4.0000 1.0000
vt 0.0000 4.0000 1.0000
vt -0.7854 4.0000 1.0000
vt 0.7854 4.0000 1.0000
vt 1.5708 4.0000 1.0000
vt 2.3562 4.0000 1.0000
vt 3.1416 4.0000 1.0000
vt 3.9270 4.0000 1.0000
# 53 texture coords

g Cylinder001
usemtl wire_224086086
s 1
f 1/1/1 2/2/1 3/3/1 
f 3/3/1 4/4/1 5/5/1 
f 5/5/1 6/6/1 7/7/1 
f 3/3/1 5/5/1 7/7/1 
f 1/1/1 3/3/1 7/7/1 
f 8/8/1 1/1/1 7/7/1 
s off
f 9/9/2 10/10/2 11/11/2 
f 11/11/2 12/12/2 9/9/2 
f 13/13/3 14/14/3 15/15/3 
f 15/15/3 16/16/3 13/13/3 
f 17/14/4 18/17/4 19/18/4 
f 19/18/4 20/15/4 17/14/4 
f 21/17/5 22/19/5 23/20/5 
f 23/20/5 24/18/5 21/17/5 
f 25/19/6 26/21/6 27/22/6 
f 27/22/6 28/20/6 25/19/6 
f 29/21/7 30/23/7 31/24/7 
f 31/24/7 32/22/7 29/21/7 
f 33/23/8 34/25/8 35/26/8 
f 35/26/8 36/24/8 33/23/8 
f 37/25/9 38/9/9 39/12/9 
f 39/12/9 40/26/9 37/25/9 
f 12/12/2 11/11/2 41/27/2 
f 41/27/2 42/28/2 12/12/2 
f 11/16/3 20/15/3 43/29/3 
f 43/29/3 41/30/3 11/16/3 
f 20/15/4 19/18/4 44/31/4 
f 44/31/4 43/29/4 20/15/4 
f 19/18/5 28/20/5 45/32/5 
f 45/32/5 44/31/5 19/18/5 
f 28/20/6 27/22/6 46/33/6 
f 46/33/6 45/32/6 28/20/6 
f 27/22/7 36/24/7 47/34/7 
f 47/34/7 46/33/7 27/22/7 
f 36/24/8 35/26/8 48/35/8 
f 48/35/8 47/34/8 36/24/8 
f 35/26/9 12/12/9 42/28/9 
f 42/28/9 48/35/9 35/26/9 
f 42/28/2 41/27/2 49/36/2 
f 49/36/2 50/37/2 42/28/2 
f 41/30/3 43/29/3 51/38/3 
f 51/38/3 49/39/3 41/30/3 
f 43/29/4 44/31/4 52/40/4 
f 52/40/4 51/38/4 43/29/4 
f 44/31/5 45/32/5 53/41/5 
f 53/41/5 52/40/5 44/31/5 
f 45/32/6 46/33/6 54/42/6 
f 54/42/6 53/41/6 45/32/6 
f 46/33/7 47/34/7 55/43/7 
f 55/43/7 54/42/7 46/33/7 
f 47/34/8 48/35/8 56/44/8 
f 56/44/8 55/43/8 47/34/8 
f 48/35/9 42/28/9 50/37/9 
f 50/37/9 56/44/9 48/35/9 
f 50/37/2 49/36/2 57/45/2 
f 57/45/2 58/46/2 50/37/2 
f 49/39/3 51/38/3 59/47/3 
f 59/47/3 57/48/3 49/39/3 
f 51/38/4 52/40/4 60/49/4 
f 60/49/4 59/47/4 51/38/4 
f 52/40/5 53/41/5 61/50/5 
f 61/50/5 60/49/5 52/40/5 
f 53/41/6 54/42/6 62/51/6 
f 62/51/6 61/50/6 53/41/6 
f 54/42/7 55/43/7 63/52/7 
f 63/52/7 62/51/7 54/42/7 
f 55/43/8 56/44/8 64/53/8 
f 64/53/8 63/52/8 55/43/8 
f 56/44/9 50/37/9 58/46/9 
f 58/46/9 64/53/9 56/44/9 
s 1
f 65/7/10 66/8/10 67/1/10 
f 67/1/10 68/2/10 69/3/10 
f 69/3/10 70/4/10 71/5/10 
f 67/1/10 69/3/10 71/5/10 
f 65/7/10 67/1/10 71/5/10 
f 72/6/10 65/7/10 71/5/10 
s off
f 58/46/11 57/45/11 73/8/11 
f 73/8/11 74/7/11 58/46/11 
f 57/48/12 59/47/12 75/1/12 
f 75/1/12 73/8/12 57/48/12 
f 59/47/13 60/49/13 76/2/13 
f 76/2/13 75/1/13 59/47/13 
f 60/49/14 61/50/14 77/3/14 
f 77/3/14 76/2/14 60/49/14 
f 61/50/15 62/51/15 78/4/15 
f 78/4/15 77/3/15 61/50/15 
f 62/51/16 63/52/16 79/5/16 
f 79/5/16 78/4/16 62/51/16 
f 63/52/17 64/53/17 80/6/17 
f 80/6/17 79/5/17 63/52/17 
f 64/53/18 58/46/18 74/7/18 
f 74/7/18 80/6/18 64/53/18 
f 74/7/15 73/8/15 66/8/15 
f 66/8/15 65/7/15 74/7/15 
f 73/8/16 75/1/16 67/1/16 
f 67/1/16 66/8/16 73/8/16 
f 75/1/17 76/2/17 68/2/17 
f 68/2/17 67/1/17 75/1/17 
f 76/2/18 77/3/18 69/3/18 
f 69/3/18 68/2/18 76/2/18 
f 77/3/11 78/4/11 70/4/11 
f 70/4/11 69/3/11 77/3/11 
f 78/4/12 79/5/12 71/5/12 
f 71/5/12 70/4/12 78/4/12 
f 79/5/13 80/6/13 72/6/13 
f 72/6/13 71/5/13 79/5/13 
f 80/6/14 74/7/14 65/7/14 
f 65/7/14 72/6/14 80/6/14 
f 10/6/1 17/5/1 14/14/1 
f 14/14/1 13/13/1 10/6/1 
f 17/14/19 20/15/19 15/15/19 
f 15/15/19 14/14/19 17/14/19 
f 20/15/20 11/16/20 16/16/20 
f 16/16/20 15/15/20 20/15/20 
f 11/11/21 10/10/21 13/13/21 
f 13/13/21 16/16/21 11/11/21 
f 18/4/1 25/3/1 22/19/1 
f 22/19/1 21/17/1 18/4/1 
f 25/19/22 28/20/22 23/20/22 
f 23/20/22 22/19/22 25/19/22 
f 28/20/23 19/18/23 24/18/23 
f 24/18/23 23/20/23 28/20/23 
f 19/18/24 18/17/24 21/17/24 
f 21/17/24 24/18/24 19/18/24 
f 26/2/1 33/1/1 30/23/1 
f 30/23/1 29/21/1 26/2/1 
f 33/23/25 36/24/25 31/24/25 
f 31/24/25 30/23/25 33/23/25 
f 36/24/26 27/22/26 32/22/26 
f 32/22/26 31/24/26 36/24/26 
f 27/22/27 26/21/27 29/21/27 
f 29/21/27 32/22/27 27/22/27 
f 34/8/1 9/7/1 38/9/1 
f 38/9/1 37/25/1 34/8/1 
f 9/9/28 12/12/28 39/12/28 
f 39/12/28 38/9/28 9/9/28 
f 12/12/29 35/26/29 40/26/29 
f 40/26/29 39/12/29 12/12/29 
f 35/26/30 34/25/30 37/25/30 
f 37/25/30 40/26/30 35/26/30 
f 10/10/31 9/9/31 81/7/31 
f 81/7/31 82/6/31 10/10/31 
f 9/7/32 34/8/32 83/8/32 
f 83/8/32 81/7/32 9/7/32 
f 34/25/33 33/23/33 84/1/33 
f 84/1/33 83/8/33 34/25/33 
f 33/1/34 26/2/34 85/2/34 
f 85/2/34 84/1/34 33/1/34 
f 26/21/35 25/19/35 86/3/35 
f 86/3/35 85/2/35 26/21/35 
f 25/3/36 18/4/36 87/4/36 
f 87/4/36 86/3/36 25/3/36 
f 18/17/37 17/14/37 88/5/37 
f 88/5/37 87/4/37 18/17/37 
f 17/5/38 10/6/38 82/6/38 
f 82/6/38 88/5/38 17/5/38 
f 82/6/39 81/7/39 7/7/39 
f 7/7/39 6/6/39 82/6/39 
f 81/7/40 83/8/40 8/8/40 
f 8/8/40 7/7/40 81/7/40 
f 83/8/41 84/1/41 1/1/41 
f 1/1/41 8/8/41 83/8/41 
f 84/1/42 85/2/42 2/2/42 
f 2/2/42 1/1/42 84/1/42 
f 85/2/43 86/3/43 3/3/43 
f 3/3/43 2/2/43 85/2/43 
f 86/3/44 87/4/44 4/4/44 
f 4/4/44 3/3/44 86/3/44 
f 87/4/45 88/5/45 5/5/45 
f 5/5/45 4/4/45 87/4/45 
f 88/5/46 82/6/46 6/6/46 
f 6/6/46 5/5/46 88/5/46 
# 172 faces

