# 3ds Max Wavefront OBJ Exporter v0.97b - (c)2007 guruware
# File Created: 27.11.2012 23:50:27

mtllib Crystalline.mtl

#
# object Pyramid001
#

v  0.0000 6.0000 -0.0000
v  3.2446 0.0000 4.6338
v  4.6338 0.0000 -3.2446
v  -3.2446 0.0000 -4.6338
v  -4.6338 0.0000 3.2446
v  0.0000 -6.0000 -0.0000
# 6 vertices

vn 0.8194 0.5547 0.1445
vn 0.1445 0.5547 -0.8194
vn -0.8194 0.5547 -0.1445
vn -0.1445 0.5547 0.8194
vn 0.4173 -0.6860 0.5960
vn -0.0000 -1.0000 -0.0000
vn 0.5960 -0.6860 -0.4173
vn -0.4173 -0.6860 -0.5960
vn -0.5960 -0.6860 0.4173
# 9 vertex normals

vt 4.0000 8.0000 0.0000
vt 0.0000 0.0000 0.0000
vt 8.0000 0.0000 0.0000
vt 0.0000 8.0000 0.0000
vt 4.0000 4.0000 0.0000
vt 8.0000 8.0000 0.0000
# 6 texture coords

g Pyramid001
usemtl 04___Default
s 4
f 1/1/1 2/2/1 3/3/1 
s 2
f 1/1/2 3/2/2 4/3/2 
s 16
f 1/1/3 4/2/3 5/3/3 
s 32
f 1/1/4 5/2/4 2/3/4 
s 8
f 2/4/5 6/5/6 3/6/7 
f 3/6/7 6/5/6 4/3/8 
f 4/3/8 6/5/6 5/2/9 
f 5/2/9 6/5/6 2/4/5 
# 8 faces

